<svg xmlns="http://www.w3.org/2000/svg" xmlns:xlink="http://www.w3.org/1999/xlink" width="50" zoomAndPan="magnify" viewBox="0 0 37.5 37.499999" height="50" preserveAspectRatio="xMidYMid meet" version="1.0"><defs><clipPath id="f46d6cb3a4"><path d="M 1.703125 1.316406 L 35.75 1.316406 L 35.75 36.101562 L 1.703125 36.101562 Z M 1.703125 1.316406 " clip-rule="nonzero"/></clipPath><clipPath id="7671fcd651"><path d="M 9 1.316406 L 16 1.316406 L 16 8 L 9 8 Z M 9 1.316406 " clip-rule="nonzero"/></clipPath></defs><path fill="#100f0d" d="M 26.476562 6.554688 L 19.511719 8.871094 L 19.878906 9.972656 L 26.84375 7.652344 L 26.476562 6.554688 " fill-opacity="1" fill-rule="nonzero"/><path fill="#100f0d" d="M 4.023438 24.492188 L 23.175781 24.492188 L 23.175781 23.332031 L 4.023438 23.332031 L 4.023438 24.492188 " fill-opacity="1" fill-rule="nonzero"/><path fill="#100f0d" d="M 4.023438 26.808594 L 23.175781 26.808594 L 23.175781 25.648438 L 4.023438 25.648438 L 4.023438 26.808594 " fill-opacity="1" fill-rule="nonzero"/><g clip-path="url(#f46d6cb3a4)"><path fill="#100f0d" d="M 26.253906 27.753906 C 25.214844 26.027344 25.257812 23.867188 26.386719 22.175781 L 26.488281 22.023438 L 33.574219 17.777344 C 33.125 19.183594 33.320312 20.738281 34.171875 22.007812 L 34.550781 22.578125 Z M 34.503906 29.5625 L 26.246094 34.714844 C 25.203125 32.988281 25.246094 30.824219 26.375 29.132812 L 26.492188 28.960938 C 26.550781 28.929688 26.613281 28.898438 26.667969 28.863281 L 33.207031 24.78125 C 32.957031 26.472656 33.414062 28.199219 34.503906 29.5625 Z M 25.046875 27.96875 L 3.445312 27.96875 C 3.125 27.96875 2.863281 27.707031 2.863281 27.390625 L 2.863281 22.226562 C 2.863281 22.207031 2.867188 22.191406 2.867188 22.171875 L 25.046875 22.171875 C 24.113281 23.996094 24.113281 26.148438 25.046875 27.96875 Z M 25.035156 34.921875 L 6.347656 34.921875 C 6.027344 34.921875 5.765625 34.664062 5.765625 34.34375 L 5.765625 29.128906 L 25.035156 29.128906 C 24.101562 30.949219 24.101562 33.101562 25.035156 34.921875 Z M 10.3125 17.128906 C 10.363281 17.148438 10.417969 17.167969 10.46875 17.183594 L 18.59375 19.71875 C 18.765625 19.773438 18.941406 19.800781 19.113281 19.800781 C 19.289062 19.800781 19.464844 19.773438 19.632812 19.71875 L 27.757812 17.183594 C 28.195312 17.046875 28.546875 16.753906 28.757812 16.378906 L 33.65625 16.378906 L 25.917969 21.015625 L 4.261719 21.015625 Z M 10.410156 10.230469 L 18.535156 12.746094 L 18.535156 18.488281 L 10.816406 16.078125 C 10.574219 16.003906 10.410156 15.78125 10.410156 15.523438 Z M 19.695312 12.746094 L 27.820312 10.230469 L 27.820312 15.523438 C 27.820312 15.78125 27.65625 16.003906 27.414062 16.078125 L 19.695312 18.488281 Z M 34.628906 23.894531 L 35.164062 23.558594 C 35.433594 23.394531 35.617188 23.128906 35.683594 22.820312 C 35.75 22.511719 35.691406 22.199219 35.515625 21.933594 L 35.136719 21.363281 C 34.289062 20.09375 34.289062 18.453125 35.136719 17.183594 L 35.246094 17.019531 C 35.484375 16.664062 35.507812 16.207031 35.304688 15.828125 C 35.101562 15.453125 34.710938 15.21875 34.28125 15.21875 L 28.980469 15.21875 L 28.980469 9.871094 L 34.332031 8.210938 C 34.820312 8.058594 35.148438 7.613281 35.148438 7.105469 C 35.148438 6.59375 34.820312 6.148438 34.332031 5.996094 L 19.644531 1.445312 C 19.292969 1.335938 18.925781 1.339844 18.578125 1.457031 L 15.449219 2.496094 L 15.816406 3.597656 L 18.945312 2.554688 C 19.058594 2.515625 19.183594 2.515625 19.300781 2.550781 L 33.988281 7.105469 L 19.285156 11.660156 C 19.175781 11.695312 19.054688 11.695312 18.941406 11.660156 L 4.273438 7.113281 L 8.253906 5.921875 L 7.921875 4.808594 L 3.9375 6.003906 C 3.445312 6.152344 3.113281 6.59375 3.113281 7.109375 C 3.109375 7.621094 3.4375 8.066406 3.929688 8.21875 L 4.023438 8.25 L 4.023438 12.738281 L 2.367188 15.5 L 3.363281 16.097656 L 4.023438 14.992188 L 4.023438 16.957031 L 5.1875 16.957031 L 5.1875 14.992188 L 5.847656 16.097656 L 6.84375 15.5 L 5.1875 12.738281 L 5.1875 8.609375 L 9.25 9.867188 L 9.25 15.523438 C 9.25 15.804688 9.316406 16.074219 9.4375 16.3125 L 2.503906 20.761719 C 2.003906 21.085938 1.703125 21.632812 1.703125 22.226562 L 1.703125 27.390625 C 1.703125 28.347656 2.484375 29.128906 3.445312 29.128906 L 4.605469 29.128906 L 4.605469 34.34375 C 4.605469 35.304688 5.386719 36.082031 6.347656 36.082031 L 25.746094 36.082031 C 26.074219 36.082031 26.390625 35.992188 26.667969 35.820312 L 35.121094 30.542969 C 35.402344 30.367188 35.59375 30.082031 35.648438 29.753906 C 35.703125 29.429688 35.617188 29.09375 35.410156 28.835938 C 34.335938 27.496094 34.019531 25.71875 34.5625 24.089844 L 34.628906 23.894531 " fill-opacity="1" fill-rule="nonzero"/></g><path fill="#100f0d" d="M 6.925781 31.445312 L 23.175781 31.445312 L 23.175781 30.285156 L 6.925781 30.285156 L 6.925781 31.445312 " fill-opacity="1" fill-rule="nonzero"/><path fill="#100f0d" d="M 6.925781 33.765625 L 23.175781 33.765625 L 23.175781 32.605469 L 6.925781 32.605469 L 6.925781 33.765625 " fill-opacity="1" fill-rule="nonzero"/><g clip-path="url(#7671fcd651)"><path fill="#100f0d" d="M 12.148438 3.910156 C 12.386719 4.253906 12.683594 4.550781 13.027344 4.785156 C 12.683594 5.019531 12.386719 5.320312 12.148438 5.664062 C 11.914062 5.320312 11.617188 5.019531 11.273438 4.785156 C 11.617188 4.550781 11.914062 4.253906 12.148438 3.910156 Z M 11.570312 7.539062 L 11.570312 7.683594 L 12.730469 7.683594 L 12.730469 7.539062 C 12.730469 6.339844 13.707031 5.363281 14.90625 5.363281 L 15.050781 5.363281 L 15.050781 4.207031 L 14.90625 4.207031 C 13.707031 4.207031 12.730469 3.230469 12.730469 2.03125 L 12.730469 1.886719 L 11.570312 1.886719 L 11.570312 2.03125 C 11.570312 3.230469 10.59375 4.207031 9.394531 4.207031 L 9.25 4.207031 L 9.25 5.363281 L 9.394531 5.363281 C 10.59375 5.363281 11.570312 6.339844 11.570312 7.539062 " fill-opacity="1" fill-rule="nonzero"/></g></svg>